# xmcd
#
# Track frame offsets: 
#        150
#        17041
#        33104
#        55197
#        79909
#        107702
#        130943
#        161578
#        182813
#        228382
#        244164
#        275323
#        309703
#
# Disc length: 4389 seconds
#
# Revision: 0
# Processed by: cddbd v1.5.2PL0 Copyright (c) Steve Scherf et al.
# Submitted via: ExactAudioCopy v0.99pb5
#
DISCID=a711230d
DTITLE=Last Train Home - Live at IOTA
DYEAR=2007
DGENRE=Country
TTITLE0=Tonight I'll Be Staying Here With You
TTITLE1=My Sally
TTITLE2=Tonight
TTITLE3=Flood
TTITLE4=Quarter To Three - Come Back, Baby
TTITLE5=Hendersonville
TTITLE6=Dogs On The East Side
TTITLE7=I Flew Over Our House Last Night
TTITLE8=Louisiana - Tonight The Bottle Let Me Down
TTITLE9=Gravedigger's Blues
TTITLE10=Lover's Farewell
TTITLE11=Walls Of Time
TTITLE12=Say Won't You Be Mine
EXTD=
EXTT0=
EXTT1=
EXTT2=
EXTT3=
EXTT4=
EXTT5=
EXTT6=
EXTT7=
EXTT8=
EXTT9=
EXTT10=
EXTT11=
EXTT12=
PLAYORDER=
